<svg width="600" height="600" viewBox="0 0 600 600" fill="none" xmlns="http://www.w3.org/2000/svg">
<g clip-path="url(#clip0_1087_32)">
<g clip-path="url(#clip1_1087_32)">
<path d="M293.72 108.918L293.703 108.953L293.686 108.989L79.3465 573.391C72.5186 586.467 56.6937 595.958 41.0843 595.302C33.3425 594.977 25.6525 592.158 19.0841 586.013C12.5416 579.893 6.97935 570.345 3.70452 556.343L3.59923 206.69C9.08237 188.374 18.6365 179.097 28.8331 175.473C39.0862 171.828 50.5094 173.711 60.075 178.786L125.942 242.797C125.748 245.371 124.891 249.518 123.443 254.621C121.812 260.372 119.504 267.09 116.814 273.642C114.12 280.204 111.069 286.533 107.967 291.537C106.416 294.039 104.88 296.163 103.403 297.806C102.526 298.782 101.707 299.544 100.957 300.112L65.5502 262.4L61.1908 257.757L61.2276 264.125L62.3441 457.277L62.4087 468.439L67.1114 458.316L264.654 33.0981C272.834 20.5634 280.437 12.4936 287.512 8.0189C294.526 3.58225 300.996 2.68522 307.19 4.44169C313.507 6.23306 319.857 10.8752 326.311 18.1583C332.749 25.422 339.131 35.129 345.551 46.7334C358.397 69.9508 371.187 100.366 384.806 133.112C385.445 134.649 386.086 136.191 386.729 137.738C399.646 168.812 413.316 201.696 428.42 232.059C428.274 232.351 428.053 232.743 427.74 233.24C426.913 234.553 425.616 236.329 423.932 238.444C420.573 242.659 415.816 248.039 410.559 253.434C405.3 258.832 399.587 264.197 394.321 268.403C389.977 271.873 386.165 274.363 383.269 275.56L302.694 100.061L300.518 95.3221L298.186 99.9864L293.72 108.918ZM480.887 362.661L528.862 459.671L533.602 469.258V458.563V264.295V258.177L529.318 262.544L297.78 498.513L200.179 396.479C201.284 383.774 205.962 371.092 211.171 360.971C213.843 355.778 216.631 351.306 219.097 347.901C220.697 345.691 222.097 344.022 223.193 342.899L293.717 416.747L295.544 418.66L297.35 416.728L306.653 406.781L529.318 182.53C540.678 175.541 550.241 172.557 558.205 172.135C566.194 171.711 572.717 173.854 578.015 177.343C588.603 184.315 594.488 196.811 596.704 205.418L592.242 562.365L592.242 562.38V562.396C592.242 562.394 592.242 562.396 592.241 562.402C592.234 562.449 592.193 562.751 591.97 563.387C591.742 564.038 591.383 564.875 590.884 565.866C589.888 567.844 588.389 570.32 586.43 572.966C582.501 578.276 576.845 584.107 569.895 588.014C562.988 591.898 554.855 593.861 545.765 591.612C536.683 589.365 526.311 582.83 515.087 569.075L439.994 408.301C451.231 387.589 467.189 373.024 480.887 362.661Z" stroke="#750EB5" stroke-width="5" stroke-miterlimit="22.9256" stroke-linecap="round"/>
</g>
</g>
<defs>
<clipPath id="clip0_1087_32">
<rect width="600" height="600" fill="white"/>
</clipPath>
<clipPath id="clip1_1087_32">
<rect width="600" height="600" fill="white"/>
</clipPath>
</defs>
</svg>
